<svg><defs><symbol id="arrow" viewBox="0 0 11 17" xmlns="http://www.w3.org/2000/svg"><path d="M9.997 9.342l-7.31 7.31a1.19 1.19 0 11-1.684-1.684L7.471 8.5 1.003 2.032A1.19 1.19 0 012.687.35l7.31 7.31a1.187 1.187 0 010 1.683z"/></symbol><symbol id="arrow_big_grey" viewBox="0 0 182 455" fill="none" xmlns="http://www.w3.org/2000/svg"><path d="M245 439L32 226 242 16" stroke="#F2F2F2" stroke-width="45"/></symbol><symbol id="arrow_big_yellow" viewBox="0 0 257 721" fill="none" xmlns="http://www.w3.org/2000/svg"><path d="M363 720L1 357.95 357.901 1" stroke="#F9B233"/></symbol><symbol id="icon_facebook" viewBox="0 0 9 17" xmlns="http://www.w3.org/2000/svg"><path d="M.48 9.054h1.864v7.672c0 .151.123.274.274.274h3.16a.274.274 0 00.274-.274V9.09h2.142c.14 0 .257-.104.273-.243l.325-2.824a.274.274 0 00-.272-.305H6.052v-1.77c0-.535.287-.805.854-.805H8.52a.274.274 0 00.274-.274V.276A.274.274 0 008.52.002H6.296A2.18 2.18 0 006.194 0C5.81 0 4.468.076 3.408 1.05c-1.173 1.08-1.01 2.373-.971 2.597v2.07H.48a.274.274 0 00-.274.275V8.78c0 .151.123.274.274.274z"/></symbol><symbol id="icon_vk" viewBox="0 0 20 12" xmlns="http://www.w3.org/2000/svg"><path d="M17.733 5.065c.284-.367.51-.662.677-.885 1.2-1.597 1.721-2.617 1.562-3.061l-.063-.104c-.041-.063-.15-.12-.322-.172-.174-.052-.396-.06-.667-.026l-2.999.02a.854.854 0 00-.343.037L15.524.9l-.041.031a.459.459 0 00-.114.11.706.706 0 00-.105.182 16.99 16.99 0 01-1.114 2.343c-.257.43-.493.804-.708 1.12a5.34 5.34 0 01-.541.697 3.801 3.801 0 01-.396.359c-.118.09-.208.128-.27.115a5.164 5.164 0 01-.178-.042.687.687 0 01-.234-.255 1.142 1.142 0 01-.12-.406 4.407 4.407 0 01-.036-.422 8.435 8.435 0 01.005-.5c.007-.215.01-.36.01-.437 0-.264.006-.55.016-.86l.026-.734c.007-.18.01-.37.01-.572 0-.201-.012-.36-.036-.474a1.662 1.662 0 00-.11-.333.56.56 0 00-.213-.25 1.203 1.203 0 00-.349-.14c-.366-.085-.835-.13-1.405-.137-1.29-.014-2.12.07-2.488.25a1.41 1.41 0 00-.396.312c-.125.153-.142.237-.052.25.417.063.711.212.885.448l.063.125c.048.09.097.25.145.479.049.23.08.482.094.76.035.507.035.94 0 1.302-.035.361-.067.642-.099.843a1.69 1.69 0 01-.14.49 2.045 2.045 0 01-.125.229.183.183 0 01-.052.052.782.782 0 01-.281.052c-.098 0-.216-.05-.354-.146a2.463 2.463 0 01-.433-.401 5.329 5.329 0 01-.505-.714A12.365 12.365 0 015.3 3.545l-.166-.302a25.544 25.544 0 01-.427-.849c-.18-.371-.34-.73-.48-1.078a.69.69 0 00-.25-.333l-.05-.031A.708.708 0 003.76.863a1.122 1.122 0 00-.24-.067L.667.816c-.291 0-.489.067-.593.199l-.042.062A.336.336 0 000 1.244c0 .076.02.17.063.28.416.98.87 1.924 1.358 2.833.49.91.915 1.642 1.276 2.197.361.556.729 1.08 1.104 1.573.375.493.623.808.744.947.122.14.217.243.287.312l.26.25c.167.167.411.367.734.6.323.232.68.461 1.073.686.392.226.849.41 1.37.553.52.142 1.026.2 1.52.171h1.197c.243-.02.427-.097.552-.229l.041-.052a.704.704 0 00.078-.192c.025-.087.037-.183.037-.287a3.428 3.428 0 01.068-.806c.052-.24.11-.42.177-.542a1.332 1.332 0 01.4-.458.844.844 0 01.084-.037c.166-.055.363-.001.588.162.226.163.438.364.636.604.197.24.435.508.713.807.277.298.52.52.729.666l.208.125c.139.083.32.16.541.23.223.069.417.086.584.051l2.665-.042c.264 0 .469-.043.615-.13.145-.086.232-.182.26-.286a.808.808 0 00.005-.354 1.29 1.29 0 00-.072-.275 1.408 1.408 0 00-.068-.13c-.348-.625-1.01-1.393-1.99-2.302l-.02-.02-.01-.011-.01-.01h-.011c-.445-.424-.726-.709-.844-.855-.215-.277-.264-.558-.145-.843.082-.216.395-.67.936-1.365z"/></symbol><symbol id="icon_instagram" viewBox="0 0 16 16" xmlns="http://www.w3.org/2000/svg"><path d="M2.054 0h11.892C15.076 0 16 .836 16 2.053v11.893C16 15.165 15.076 16 13.946 16H2.054C.924 16 0 15.164 0 13.947V2.053C0 .836.924 0 2.054 0zm9.601 1.778a.722.722 0 00-.72.72v1.724c0 .396.324.72.72.72h1.809c.396 0 .72-.324.72-.72V2.498a.722.722 0 00-.72-.72h-1.809zm2.537 4.988h-1.409c.134.435.206.896.206 1.373 0 2.661-2.227 4.819-4.974 4.819-2.746 0-4.973-2.158-4.973-4.82 0-.476.072-.937.205-1.372H1.778v6.759c0 .35.286.636.636.636h11.142c.35 0 .636-.286.636-.636V6.766zM8.015 4.852c-1.775 0-3.213 1.394-3.213 3.113 0 1.72 1.438 3.114 3.213 3.114 1.775 0 3.214-1.394 3.214-3.114s-1.44-3.113-3.214-3.113z"/></symbol><symbol id="icon_logout" viewBox="0 0 512.016 512" xmlns="http://www.w3.org/2000/svg"><path d="M496 240.008H293.332c-8.832 0-16-7.168-16-16s7.168-16 16-16H496c8.832 0 16 7.168 16 16s-7.168 16-16 16zm0 0"/><path d="M416 320.008a15.89 15.89 0 01-11.309-4.692c-6.25-6.253-6.25-16.386 0-22.636l68.696-68.692-68.696-68.695c-6.25-6.25-6.25-16.383 0-22.633 6.254-6.254 16.387-6.254 22.637 0l80 80c6.25 6.25 6.25 16.383 0 22.633l-80 80A15.896 15.896 0 01416 320.008zm-245.332 192c-4.566 0-8.898-.64-13.227-1.985L29.055 467.25C11.585 461.148 0 444.871 0 426.676v-384C0 19.145 19.137.008 42.668.008c4.562 0 8.895.64 13.227 1.984l128.382 42.774c17.473 6.101 29.055 22.379 29.055 40.574v384c0 23.531-19.133 42.668-42.664 42.668zm-128-480c-5.867 0-10.668 4.8-10.668 10.668v384c0 4.543 3.05 8.765 7.402 10.281l127.785 42.582c.918.297 2.114.469 3.481.469 5.867 0 10.664-4.801 10.664-10.668v-384c0-4.543-3.05-8.766-7.402-10.281L46.145 32.477c-.918-.297-2.114-.47-3.477-.47zm0 0"/><path d="M325.332 170.676c-8.832 0-16-7.168-16-16v-96c0-14.7-11.965-26.668-26.664-26.668h-240c-8.832 0-16-7.168-16-16s7.168-16 16-16h240c32.363 0 58.664 26.305 58.664 58.668v96c0 8.832-7.168 16-16 16zm-42.664 277.332h-85.336c-8.832 0-16-7.168-16-16s7.168-16 16-16h85.336c14.7 0 26.664-11.969 26.664-26.668v-96c0-8.832 7.168-16 16-16s16 7.168 16 16v96c0 32.363-26.3 58.668-58.664 58.668zm0 0"/></symbol><symbol id="icon_user" viewBox="-42 0 512 512.001" xmlns="http://www.w3.org/2000/svg"><path d="M210.352 246.633c33.882 0 63.218-12.153 87.195-36.13 23.969-23.972 36.125-53.304 36.125-87.19 0-33.876-12.152-63.211-36.129-87.192C273.566 12.152 244.23 0 210.352 0c-33.887 0-63.22 12.152-87.192 36.125s-36.129 53.309-36.129 87.188c0 33.886 12.156 63.222 36.13 87.195 23.98 23.969 53.316 36.125 87.19 36.125zM144.379 57.34c18.394-18.395 39.973-27.336 65.973-27.336 25.996 0 47.578 8.941 65.976 27.336 18.395 18.398 27.34 39.98 27.34 65.972 0 26-8.945 47.579-27.34 65.977-18.398 18.399-39.98 27.34-65.976 27.34-25.993 0-47.57-8.945-65.973-27.34-18.399-18.394-27.344-39.976-27.344-65.976 0-25.993 8.945-47.575 27.344-65.973zm281.75 336.363c-.692-9.976-2.09-20.86-4.149-32.351-2.078-11.579-4.753-22.524-7.957-32.528-3.312-10.34-7.808-20.55-13.375-30.336-5.77-10.156-12.55-19-20.16-26.277-7.957-7.613-17.699-13.734-28.965-18.2-11.226-4.44-23.668-6.69-36.976-6.69-5.227 0-10.281 2.144-20.043 8.5a2711.03 2711.03 0 01-20.879 13.46c-6.707 4.274-15.793 8.278-27.016 11.903-10.949 3.543-22.066 5.34-33.043 5.34-10.968 0-22.086-1.797-33.043-5.34-11.21-3.622-20.3-7.625-26.996-11.899a2853.13 2853.13 0 01-20.898-13.469c-9.754-6.355-14.809-8.5-20.035-8.5-13.313 0-25.75 2.254-36.973 6.7-11.258 4.457-21.004 10.578-28.969 18.199-7.609 7.281-14.39 16.12-20.156 26.273-5.558 9.785-10.058 19.992-13.371 30.34-3.2 10.004-5.875 20.945-7.953 32.524-2.063 11.476-3.457 22.363-4.149 32.363C.343 403.492 0 413.668 0 423.949c0 26.727 8.496 48.363 25.25 64.32C41.797 504.017 63.688 512 90.316 512h246.532c26.62 0 48.511-7.984 65.062-23.73 16.758-15.946 25.254-37.59 25.254-64.325-.004-10.316-.351-20.492-1.035-30.242zm-44.906 72.828c-10.934 10.406-25.45 15.465-44.38 15.465H90.317c-18.933 0-33.449-5.059-44.379-15.46-10.722-10.208-15.933-24.141-15.933-42.587 0-9.594.316-19.066.95-28.16.616-8.922 1.878-18.723 3.75-29.137 1.847-10.285 4.198-19.937 6.995-28.675 2.684-8.38 6.344-16.676 10.883-24.668 4.332-7.618 9.316-14.153 14.816-19.418 5.145-4.926 11.63-8.957 19.27-11.98 7.066-2.798 15.008-4.329 23.629-4.56 1.05.56 2.922 1.626 5.953 3.602 6.168 4.02 13.277 8.606 21.137 13.625 8.86 5.649 20.273 10.75 33.91 15.152 13.941 4.508 28.16 6.797 42.273 6.797 14.114 0 28.336-2.289 42.27-6.793 13.648-4.41 25.058-9.507 33.93-15.164 8.043-5.14 14.953-9.593 21.12-13.617 3.032-1.973 4.903-3.043 5.954-3.601 8.625.23 16.566 1.761 23.636 4.558 7.637 3.024 14.122 7.059 19.266 11.98 5.5 5.262 10.484 11.798 14.816 19.423 4.543 7.988 8.208 16.289 10.887 24.66 2.801 8.75 5.156 18.398 7 28.675 1.867 10.434 3.133 20.239 3.75 29.145v.008c.637 9.058.957 18.527.961 28.148-.004 18.45-5.215 32.38-15.937 42.582zm0 0"/></symbol><symbol id="icon_window_max" viewBox="0 0 24 24" xmlns="http://www.w3.org/2000/svg"><path d="M15 9.75a.75.75 0 01-.53-1.281l8.25-8.25a.75.75 0 111.061 1.061l-8.25 8.25a.748.748 0 01-.531.22z"/><path d="M20.25 10h-5.5a.75.75 0 01-.75-.75v-5.5a.75.75 0 011.5 0V8.5h4.75a.75.75 0 010 1.5zm-3 14H2.75A2.752 2.752 0 010 21.25V9.75c0-.981.529-1.89 1.38-2.373a.75.75 0 11.74 1.305c-.388.22-.62.62-.62 1.068v11.5c0 .689.561 1.25 1.25 1.25h14.5c.689 0 1.25-.561 1.25-1.25v-2a.75.75 0 011.5 0v2A2.752 2.752 0 0117.25 24z"/><path d="M1.75 12h-1a.75.75 0 010-1.5h1a.75.75 0 010 1.5zm19.5 5H6.75A2.752 2.752 0 014 14.25V2.75A2.752 2.752 0 016.75 0h11.5a.75.75 0 010 1.5H6.75c-.689 0-1.25.561-1.25 1.25v11.5c0 .689.561 1.25 1.25 1.25h14.5c.689 0 1.25-.561 1.25-1.25v-8.5a.75.75 0 011.5 0v8.5A2.752 2.752 0 0121.25 17z"/><path d="M11.25 5h-6.5a.75.75 0 010-1.5h6.5a.75.75 0 010 1.5z"/></symbol><symbol id="icon_calendar" xmlns="http://www.w3.org/2000/svg" viewBox="0 0 512 512" xml:space="preserve"><circle cx="386" cy="210" r="20"/><path d="M432 40h-26V20c0-11.046-8.954-20-20-20s-20 8.954-20 20v20h-91V20c0-11.046-8.954-20-20-20s-20 8.954-20 20v20h-90V20c0-11.046-8.954-20-20-20s-20 8.954-20 20v20H80C35.888 40 0 75.888 0 120v312c0 44.112 35.888 80 80 80h153c11.046 0 20-8.954 20-20s-8.954-20-20-20H80c-22.056 0-40-17.944-40-40V120c0-22.056 17.944-40 40-40h25v20c0 11.046 8.954 20 20 20s20-8.954 20-20V80h90v20c0 11.046 8.954 20 20 20s20-8.954 20-20V80h91v20c0 11.046 8.954 20 20 20s20-8.954 20-20V80h26c22.056 0 40 17.944 40 40v114c0 11.046 8.954 20 20 20s20-8.954 20-20V120c0-44.112-35.888-80-80-80z"/><path d="M391 270c-66.72 0-121 54.28-121 121s54.28 121 121 121 121-54.28 121-121-54.28-121-121-121zm0 202c-44.663 0-81-36.336-81-81s36.337-81 81-81 81 36.336 81 81-36.337 81-81 81z"/><path d="M420 371h-9v-21c0-11.046-8.954-20-20-20s-20 8.954-20 20v41c0 11.046 8.954 20 20 20h29c11.046 0 20-8.954 20-20s-8.954-20-20-20z"/><circle cx="299" cy="210" r="20"/><circle cx="212" cy="297" r="20"/><circle cx="125" cy="210" r="20"/><circle cx="125" cy="297" r="20"/><circle cx="125" cy="384" r="20"/><circle cx="212" cy="384" r="20"/><circle cx="212" cy="210" r="20"/></symbol><symbol id="icon_add" xmlns="http://www.w3.org/2000/svg" viewBox="0 0 477.867 477.867" xml:space="preserve"><path d="M392.533 0h-307.2C38.228.056.056 38.228 0 85.333v307.2c.056 47.105 38.228 85.277 85.333 85.333h307.2c47.105-.056 85.277-38.228 85.333-85.333v-307.2C477.81 38.228 439.638.056 392.533 0zm51.2 392.533c0 28.277-22.923 51.2-51.2 51.2h-307.2c-28.277 0-51.2-22.923-51.2-51.2v-307.2c0-28.277 22.923-51.2 51.2-51.2h307.2c28.277 0 51.2 22.923 51.2 51.2v307.2z"/><path d="M324.267 221.867H256V153.6c0-9.426-7.641-17.067-17.067-17.067s-17.067 7.641-17.067 17.067v68.267H153.6c-9.426 0-17.067 7.641-17.067 17.067S144.174 256 153.6 256h68.267v68.267c0 9.426 7.641 17.067 17.067 17.067S256 333.692 256 324.267V256h68.267c9.426 0 17.067-7.641 17.067-17.067s-7.642-17.066-17.067-17.066z"/></symbol><symbol id="icon_add_pencil" viewBox="0 0 24 24" xmlns="http://www.w3.org/2000/svg"><path d="M17.5 24c-3.584 0-6.5-2.916-6.5-6.5s2.916-6.5 6.5-6.5 6.5 2.916 6.5 6.5-2.916 6.5-6.5 6.5zm0-11.5c-2.757 0-5 2.243-5 5s2.243 5 5 5 5-2.243 5-5-2.243-5-5-5z"/><path d="M17.5 21a.75.75 0 01-.75-.75v-5.5a.75.75 0 011.5 0v5.5a.75.75 0 01-.75.75z"/><path d="M20.25 18.25h-5.5a.75.75 0 010-1.5h5.5a.75.75 0 010 1.5zm-.379-9.239a.744.744 0 01-.53-.22l-4.135-4.134a.75.75 0 111.061-1.061l4.135 4.134a.75.75 0 01-.531 1.281z"/><path d="M.75 24a.75.75 0 01-.705-1.006l2.38-6.56a.74.74 0 01.175-.274L17.68 1.09c1.392-1.404 3.836-1.406 5.233.002A3.673 3.673 0 0124 3.7c0 .999-.389 1.931-1.094 2.625L19.771 9.46a.75.75 0 11-1.061-1.061l3.14-3.14a2.185 2.185 0 000-3.11c-.833-.84-2.279-.838-3.107-.002L3.778 17.103l-1.776 4.896 4.896-1.776L8.4 18.72a.75.75 0 111.061 1.061L7.84 21.4a.743.743 0 01-.274.175l-6.56 2.38A.759.759 0 01.75 24z"/><path d="M7.308 21.62a.744.744 0 01-.53-.22L2.6 17.223a.75.75 0 111.061-1.061l4.178 4.178a.75.75 0 01-.531 1.28z"/></symbol><symbol id="icon_add_double" xmlns="http://www.w3.org/2000/svg" viewBox="0 0 512 512" xml:space="preserve"><path d="M464 64h-48V48c0-26.51-21.49-48-48-48H48C21.49 0 0 21.49 0 48v320c0 26.51 21.49 48 48 48h16v48c0 26.51 21.49 48 48 48h352c26.51 0 48-21.49 48-48V112c0-26.51-21.49-48-48-48zM64 112v272H48c-8.837 0-16-7.163-16-16V48c0-8.837 7.163-16 16-16h320c8.837 0 16 7.163 16 16v16H112c-26.51 0-48 21.49-48 48zm416 352c0 8.837-7.163 16-16 16H112c-8.837 0-16-7.163-16-16V112c0-8.837 7.163-16 16-16h352c8.837 0 16 7.163 16 16v352z"/><path d="M304 176h-32v96h-96v32h96v96h32v-96h96v-32h-96z"/></symbol><symbol id="icon_pencil" xmlns="http://www.w3.org/2000/svg" viewBox="0 0 469.336 469.336" xml:space="preserve"><path d="M456.836 76.168l-64-64.054c-16.125-16.139-44.177-16.17-60.365.031L45.763 301.682a10.733 10.733 0 00-2.688 4.587L.409 455.73a10.682 10.682 0 0010.261 13.606c.979 0 1.969-.136 2.927-.407l149.333-42.703a10.714 10.714 0 004.583-2.69l289.323-286.983c8.063-8.069 12.5-18.787 12.5-30.192s-4.437-22.124-12.5-30.193zM285.989 89.737l39.264 39.264-204.996 204.997-14.712-29.434a10.671 10.671 0 00-9.542-5.896H78.921L285.989 89.737zm-259.788 353.4L40.095 394.5l34.742 34.742-48.636 13.895zm123.135-35.177l-51.035 14.579-51.503-51.503 14.579-51.035h28.031l18.385 36.771a10.671 10.671 0 004.771 4.771l36.771 18.385v28.032zm21.334-17.543v-17.082c0-4.042-2.281-7.729-5.896-9.542l-29.434-14.712 204.996-204.996 39.264 39.264-208.93 207.068zM441.784 121.72l-47.033 46.613-93.747-93.747 46.582-47.001c8.063-8.063 22.104-8.063 30.167 0l64 64c4.031 4.031 6.25 9.385 6.25 15.083s-2.219 11.052-6.219 15.052z"/></symbol><symbol id="icon_close_outline" xmlns="http://www.w3.org/2000/svg" viewBox="0 0 512 512" xml:space="preserve"><path d="M498.344 407.68L348.16 255.787l151.893-151.893C508.587 95.36 512 85.12 512 74.88c0-10.24-3.413-20.48-11.947-27.307l-35.84-35.84c-15.36-15.36-40.96-15.36-56.32 0L256 163.627 104.106 11.733c-15.36-15.36-40.96-15.36-56.32 0l-35.84 35.84C5.12 54.4 0 64.64 0 74.88s5.12 20.48 11.947 29.013L163.84 255.787 11.946 407.68c-15.36 15.36-15.36 40.96 0 56.32l35.84 35.84c15.36 15.36 40.96 15.36 56.32 0l151.893-151.893L407.891 499.84c6.827 6.827 17.067 11.947 27.307 11.947 10.24 0 20.48-3.413 27.307-11.947l35.84-35.84c6.827-6.827 11.947-17.067 11.947-29.014-.001-10.24-3.414-20.48-11.948-27.306zm-22.184 32.427l-35.84 35.84c-3.413 3.413-5.12 3.413-8.534 0l-163.84-163.84c-1.706-3.413-6.827-5.12-11.946-5.12s-8.534 1.707-11.946 5.12l-163.84 163.84c-3.413 3.413-5.12 3.413-8.534 0l-35.84-35.84c-1.706-1.707-1.706-5.12 0-8.534l163.84-163.84c3.413-3.413 5.12-6.827 5.12-11.946 0-5.12-1.707-8.534-5.12-11.947L35.84 80c-1.706-1.706-1.706-3.413-1.706-5.12s0-3.413 1.706-3.413l35.84-35.84c3.413-3.413 5.12-3.413 8.534 0l163.84 163.84c6.827 6.827 17.067 6.827 23.893 0l163.84-163.84c3.413-3.413 5.12-3.413 8.534 0l35.84 35.84c1.706 1.706 1.706 3.413 1.706 3.413 0 1.706 0 3.413-1.707 3.413l-163.84 163.84c-6.827 6.827-6.827 17.067 0 23.893l163.84 163.84c1.707 1.707 1.707 3.413 1.707 3.413 0 3.414 0 5.121-1.707 6.828z"/></symbol></defs></svg>