<?xml version="1.0" encoding="utf-8"?><svg xmlns="http://www.w3.org/2000/svg" xmlns:xlink="http://www.w3.org/1999/xlink"><symbol viewBox="0 0 451.847 451.847" id="arrow-down" xmlns="http://www.w3.org/2000/svg"><path d="M225.923 354.706c-8.098 0-16.195-3.092-22.369-9.263L9.27 151.157c-12.359-12.359-12.359-32.397 0-44.751 12.354-12.354 32.388-12.354 44.748 0l171.905 171.915 171.906-171.909c12.359-12.354 32.391-12.354 44.744 0 12.365 12.354 12.365 32.392 0 44.751L248.292 345.449c-6.177 6.172-14.274 9.257-22.369 9.257z"/></symbol><symbol viewBox="0 0 512 512" id="arrow-left" xmlns="http://www.w3.org/2000/svg"><path d="M492 236H68.442l70.164-69.824c7.829-7.792 7.859-20.455.067-28.284-7.792-7.83-20.456-7.859-28.285-.068l-104.504 104-.018.019c-7.809 7.792-7.834 20.496-.002 28.314l.018.019 104.504 104c7.828 7.79 20.492 7.763 28.285-.068 7.792-7.829 7.762-20.492-.067-28.284L68.442 276H492c11.046 0 20-8.954 20-20s-8.954-20-20-20z"/></symbol><symbol viewBox="0 0 512 512" id="check" xmlns="http://www.w3.org/2000/svg"><path d="M504.502 75.496c-9.997-9.998-26.205-9.998-36.204 0L161.594 382.203 43.702 264.311c-9.997-9.998-26.205-9.997-36.204 0-9.998 9.997-9.998 26.205 0 36.203l135.994 135.992c9.994 9.997 26.214 9.99 36.204 0L504.502 111.7c9.998-9.997 9.997-26.206 0-36.204z"/></symbol><symbol viewBox="0 -46 417.813 417" id="check_bold" xmlns="http://www.w3.org/2000/svg"><path d="M159.988 318.582c-3.988 4.012-9.43 6.25-15.082 6.25s-11.094-2.238-15.082-6.25L9.375 198.113c-12.5-12.5-12.5-32.77 0-45.246l15.082-15.086c12.504-12.5 32.75-12.5 45.25 0l75.2 75.203L348.104 9.781c12.504-12.5 32.77-12.5 45.25 0l15.082 15.086c12.5 12.5 12.5 32.766 0 45.246zm0 0"/></symbol><symbol viewBox="0 0 17.17 17.17" id="close" xmlns="http://www.w3.org/2000/svg"><defs><clipPath id="ea"><path d="M11.419 8.586l5.312-5.312a1.5 1.5 0 000-2.124l-.709-.709a1.5 1.5 0 00-2.125 0L8.586 5.753 3.274.44a1.5 1.5 0 00-2.124 0l-.709.708a1.5 1.5 0 000 2.125l5.312 5.313L.442 13.9a1.5 1.5 0 000 2.125l.708.708a1.5 1.5 0 002.124 0l5.312-5.312L13.9 16.73a1.5 1.5 0 002.125 0l.708-.708a1.5 1.5 0 000-2.125zm0 0" class="ecls-1" transform="translate(675.639 72.64)"/></clipPath></defs><g clip-path="url(#ea)" transform="translate(-675.639 -72.639)"><path d="M685.797 81.225l6.686-6.686a1.112 1.112 0 00-1.573-1.573l-6.686 6.686-6.685-6.686a1.113 1.113 0 00-1.574 1.573l6.686 6.686-6.686 6.686a1.113 1.113 0 101.574 1.573l6.686-6.686 6.686 6.686a1.112 1.112 0 001.573-1.573zm0 0" class="ecls-1"/></g></symbol><symbol viewBox="0 0 512.001 512.001" id="eye_close" xmlns="http://www.w3.org/2000/svg"><path d="M316.332 195.662c-4.16-4.16-10.923-4.16-15.083 0s-4.16 10.944 0 15.083c12.075 12.075 18.752 28.139 18.752 45.248 0 35.285-28.715 64-64 64-17.109 0-33.173-6.656-45.248-18.752-4.16-4.16-10.923-4.16-15.083 0-4.16 4.139-4.16 10.923 0 15.083 16.085 16.128 37.525 25.003 60.331 25.003 47.061 0 85.333-38.272 85.333-85.333 0-22.807-8.874-44.247-25.002-60.332zm-45.462-23.531c-4.843-.853-9.792-1.472-14.869-1.472-47.061 0-85.333 38.272-85.333 85.333 0 5.077.619 10.027 1.493 14.869.917 5.163 5.419 8.811 10.475 8.811.619 0 1.237-.043 1.877-.171 5.781-1.024 9.664-6.571 8.64-12.352-.661-3.627-1.152-7.317-1.152-11.157 0-35.285 28.715-64 64-64 3.84 0 7.531.491 11.157 1.131 5.675 1.152 11.328-2.859 12.352-8.64 1.024-5.781-2.858-11.328-8.64-12.352z"/><path d="M509.462 249.102c-2.411-2.859-60.117-70.208-139.712-111.445-5.163-2.709-11.669-.661-14.379 4.587-2.709 5.227-.661 11.669 4.587 14.379 61.312 31.744 110.293 81.28 127.04 99.371-25.429 27.541-125.504 128-230.997 128-35.797 0-71.872-8.64-107.264-25.707-5.248-2.581-11.669-.341-14.229 4.971-2.581 5.291-.341 11.669 4.971 14.229 38.293 18.496 77.504 27.84 116.523 27.84 131.435 0 248.555-136.619 253.483-142.443 3.369-3.969 3.348-9.793-.023-13.782zM325.996 118.947c-24.277-8.171-47.829-12.288-69.995-12.288-131.435 0-248.555 136.619-253.483 142.443-3.115 3.669-3.371 9.003-.597 12.992 1.472 2.112 36.736 52.181 97.856 92.779a10.48 10.48 0 005.888 1.792c3.435 0 6.827-1.664 8.875-4.8 3.264-4.885 1.92-11.52-2.987-14.763-44.885-29.845-75.605-65.877-87.104-80.533 24.555-26.667 125.291-128.576 231.552-128.576 19.861 0 41.131 3.755 63.189 11.157 5.589 2.005 11.648-1.088 13.504-6.699 1.878-5.589-1.109-11.626-6.698-13.504z"/><path d="M444.865 67.128c-4.16-4.16-10.923-4.16-15.083 0L67.116 429.795c-4.16 4.16-4.16 10.923 0 15.083a10.716 10.716 0 007.552 3.115c2.731 0 5.461-1.045 7.531-3.115L444.865 82.211c4.16-4.16 4.16-10.923 0-15.083z"/></symbol><symbol viewBox="0 0 511.992 511.992" id="eye_open" xmlns="http://www.w3.org/2000/svg"><path d="M510.096 249.937c-4.032-5.867-100.928-143.275-254.101-143.275-131.435 0-248.555 136.619-253.483 142.443-3.349 3.968-3.349 9.792 0 13.781C7.44 268.71 124.56 405.329 255.995 405.329S504.549 268.71 509.477 262.886c3.094-3.669 3.371-8.981.619-12.949zM255.995 383.996c-105.365 0-205.547-100.48-230.997-128 25.408-27.541 125.483-128 230.997-128 123.285 0 210.304 100.331 231.552 127.424-24.534 26.645-125.291 128.576-231.552 128.576z"/><path d="M255.995 170.662c-47.061 0-85.333 38.272-85.333 85.333s38.272 85.333 85.333 85.333 85.333-38.272 85.333-85.333-38.272-85.333-85.333-85.333zm0 149.334c-35.285 0-64-28.715-64-64s28.715-64 64-64 64 28.715 64 64-28.715 64-64 64z"/></symbol><symbol viewBox="0 0 56.966 56.966" id="loupe" xmlns="http://www.w3.org/2000/svg"><path d="M55.146 51.887L41.588 37.786A22.926 22.926 0 0046.984 23c0-12.682-10.318-23-23-23s-23 10.318-23 23 10.318 23 23 23c4.761 0 9.298-1.436 13.177-4.162l13.661 14.208c.571.593 1.339.92 2.162.92.779 0 1.518-.297 2.079-.837a3.004 3.004 0 00.083-4.242zM23.984 6c9.374 0 17 7.626 17 17s-7.626 17-17 17-17-7.626-17-17 7.626-17 17-17z"/></symbol><symbol viewBox="0 0 32 28" id="twitter" xmlns="http://www.w3.org/2000/svg"><path d="M31.937 4.093a13.358 13.358 0 01-3.765 1.032 6.603 6.603 0 002.885-3.63 13.682 13.682 0 01-4.172 1.578 6.56 6.56 0 00-11.178 5.973C10.254 8.791 5.42 6.171 2.187 2.213a6.458 6.458 0 00-.89 3.303 6.555 6.555 0 002.915 5.457 6.519 6.519 0 01-2.968-.817v.08a6.567 6.567 0 005.26 6.436 6.758 6.758 0 01-1.724.23c-.421 0-.823-.042-1.224-.116a6.59 6.59 0 006.14 4.557 13.17 13.17 0 01-8.135 2.802 13 13 0 01-1.563-.088 18.656 18.656 0 0010.079 2.948c12.067 0 18.661-9.995 18.661-18.652 0-.276 0-.557-.021-.839a13.13 13.13 0 003.281-3.396l-.061-.025z"/></symbol><symbol viewBox="0 0 128 128" id="window" xmlns="http://www.w3.org/2000/svg"><path d="M111.48 14.64H16.52a1.75 1.75 0 00-1.75 1.75v95.22a1.75 1.75 0 001.75 1.75h94.96a1.75 1.75 0 001.75-1.75V16.39a1.75 1.75 0 00-1.75-1.75zm-1.75 95.22H18.27V18.14h91.46z"/><path d="M23.52 106.36h80.96a1.75 1.75 0 001.75-1.75V23.52a1.75 1.75 0 00-1.75-1.75H23.52a1.75 1.75 0 00-1.75 1.75v81.09a1.75 1.75 0 001.75 1.75zm38.73-45.73V25.27h3.5v35.36a1.75 1.75 0 001.75 1.75h35.23v3.5H67.5a1.75 1.75 0 00-1.75 1.75v35.23h-3.5V67.63a1.75 1.75 0 00-1.75-1.75H25.27v-3.5H60.5a1.75 1.75 0 001.75-1.75zm-36.98 8.75h33.48v33.48H25.27zm43.98 33.48V69.38h33.48v33.48zm33.48-43.98H69.25V25.27h33.48zM58.75 25.27v33.61H25.27V25.27z"/><path d="M32.828 37.283l4.636-4.636a1.75 1.75 0 10-2.474-2.475l-4.636 4.637a1.749 1.749 0 002.474 2.474zm.162 9.182a1.75 1.75 0 002.474 0l11.182-11.182a1.749 1.749 0 00-2.474-2.474L32.99 43.99a1.749 1.749 0 000 2.475zm48.02 29.726a1.749 1.749 0 00-2.474-2.474L73.9 78.353a1.75 1.75 0 102.474 2.475zm6.707.162L76.536 87.535a1.75 1.75 0 002.474 2.475l11.182-11.182a1.75 1.75 0 10-2.475-2.475z"/></symbol></svg>