<svg width="22" height="16" fill="none" xmlns="http://www.w3.org/2000/svg"><rect width="22" height="16" rx="2" fill="#fff"/><mask id="a" style="mask-type:alpha" maskUnits="userSpaceOnUse" x="0" y="0" width="22" height="16"><rect width="22" height="16" rx="2" fill="#fff"/></mask><g mask="url(#a)"><path fill-rule="evenodd" clip-rule="evenodd" d="M22 0H0v1.067h22V0zm0 2.133H0V3.2h22V2.133zM0 4.267h22v1.066H0V4.267zM22 6.4H0v1.067h22V6.4zM0 8.533h22V9.6H0V8.533zm22 2.134H0v1.066h22v-1.066zM0 12.8h22v1.067H0V12.8zm22 2.133H0V16h22v-1.067z" fill="#D02F44"/><path fill="#46467F" d="M0 0h10v7H0z"/><g filter="url(#filter0_d_128:1059)"><path fill-rule="evenodd" clip-rule="evenodd" d="M2.095 1.6a.529.529 0 01-.524.533.529.529 0 01-.523-.533c0-.295.234-.533.523-.533.29 0 .524.238.524.533zm2.095 0a.529.529 0 01-.523.533.529.529 0 01-.524-.533c0-.295.234-.533.524-.533.289 0 .524.238.524.533zm1.572.533c.29 0 .524-.238.524-.533a.529.529 0 00-.524-.533.529.529 0 00-.524.533c0 .295.235.533.524.533zM8.38 1.6a.529.529 0 01-.524.533.529.529 0 01-.524-.533c0-.295.235-.533.524-.533.29 0 .524.238.524.533zM2.619 3.2c.29 0 .524-.239.524-.533a.529.529 0 00-.524-.534.529.529 0 00-.524.534c0 .294.235.533.524.533zm2.62-.533a.529.529 0 01-.525.533.529.529 0 01-.524-.533.53.53 0 01.524-.534c.29 0 .524.24.524.534zm1.57.533c.29 0 .524-.239.524-.533a.529.529 0 00-.523-.534.529.529 0 00-.524.534c0 .294.234.533.524.533zm1.572.533a.529.529 0 01-.524.534.529.529 0 01-.524-.534c0-.294.235-.533.524-.533.29 0 .524.239.524.533zm-2.62.534a.53.53 0 00.525-.534.529.529 0 00-.524-.533.529.529 0 00-.524.533.53.53 0 00.524.534zm-1.57-.534a.529.529 0 01-.524.534.529.529 0 01-.524-.534c0-.294.234-.533.524-.533.289 0 .524.239.524.533zm-2.62.534a.53.53 0 00.524-.534.529.529 0 00-.524-.533.529.529 0 00-.523.533c0 .295.234.534.523.534zm1.572.533a.529.529 0 01-.524.533.529.529 0 01-.524-.533c0-.295.235-.533.524-.533.29 0 .524.238.524.533zm1.571.533c.29 0 .524-.238.524-.533a.529.529 0 00-.524-.533.529.529 0 00-.524.533c0 .295.235.533.524.533zm2.62-.533a.529.529 0 01-.524.533.529.529 0 01-.524-.533c0-.295.234-.533.524-.533.289 0 .523.238.523.533zm.523 1.6c.29 0 .524-.239.524-.533a.529.529 0 00-.524-.534.529.529 0 00-.524.534c0 .294.235.533.524.533zm-1.571-.533a.529.529 0 01-.524.533.529.529 0 01-.524-.533.53.53 0 01.524-.534c.29 0 .524.24.524.534zm-2.62.533a.53.53 0 00.525-.533.529.529 0 00-.524-.534.529.529 0 00-.524.534c0 .294.234.533.524.533zm-1.57-.533a.529.529 0 01-.525.533.529.529 0 01-.523-.533c0-.295.234-.534.523-.534.29 0 .524.24.524.534z" fill="url(#paint0_linear_128:1059)"/></g></g><defs><linearGradient id="paint0_linear_128:1059" x1="1.048" y1="1.067" x2="1.048" y2="6.4" gradientUnits="userSpaceOnUse"><stop stop-color="#fff"/><stop offset="1" stop-color="#F0F0F0"/></linearGradient><filter id="filter0_d_128:1059" x="1.048" y="1.067" width="7.333" height="6.333" filterUnits="userSpaceOnUse" color-interpolation-filters="sRGB"><feFlood flood-opacity="0" result="BackgroundImageFix"/><feColorMatrix in="SourceAlpha" values="0 0 0 0 0 0 0 0 0 0 0 0 0 0 0 0 0 0 127 0" result="hardAlpha"/><feOffset dy="1"/><feColorMatrix values="0 0 0 0 0 0 0 0 0 0 0 0 0 0 0 0 0 0 0.06 0"/><feBlend in2="BackgroundImageFix" result="effect1_dropShadow_128:1059"/><feBlend in="SourceGraphic" in2="effect1_dropShadow_128:1059" result="shape"/></filter></defs></svg>