<svg width="40" height="40" viewBox="0 0 40 40" fill="none" xmlns="http://www.w3.org/2000/svg">
<circle cx="20" cy="20" r="20" fill="#F0F2FD"/>
<path d="M16.3071 29.7148H23.78" stroke="#6476E0" stroke-width="1.12093" stroke-linecap="round" stroke-linejoin="round"/>
<path d="M20.0435 26.7232V21.4922" stroke="#6476E0" stroke-width="1.12093" stroke-linecap="round" stroke-linejoin="round"/>
<path d="M17.0542 18.5039L20.0433 21.493L23.0325 18.5039" stroke="#6476E0" stroke-width="1.12093" stroke-linecap="round" stroke-linejoin="round"/>
<path d="M15.4384 23.644C14.5498 22.95 13.8301 22.0636 13.3334 21.0514C12.8366 20.0393 12.5758 18.9277 12.5704 17.8002C12.548 13.7497 15.8135 10.3826 19.863 10.2873C21.4321 10.2495 22.9734 10.7068 24.268 11.5942C25.5627 12.4817 26.5451 13.7542 27.0758 15.2314C27.6066 16.7086 27.6587 18.3154 27.2249 19.8239C26.791 21.3323 25.8932 22.6659 24.6588 23.6354C24.3869 23.8461 24.1665 24.1158 24.0142 24.4242C23.8618 24.7325 23.7816 25.0715 23.7796 25.4154L23.7796 25.9782C23.7796 26.1764 23.7008 26.3664 23.5607 26.5066C23.4206 26.6467 23.2305 26.7254 23.0323 26.7254H17.054C16.8558 26.7254 16.6657 26.6467 16.5256 26.5066C16.3855 26.3664 16.3067 26.1764 16.3067 25.9782L16.3067 25.4148C16.3059 25.0731 16.2272 24.736 16.0768 24.4292C15.9263 24.1224 15.708 23.8539 15.4384 23.644V23.644Z" stroke="#6476E0" stroke-width="1.12093" stroke-linecap="round" stroke-linejoin="round"/>
</svg>
