<svg>
    <defs>

        <symbol id="arrow" width="11" height="17" viewBox="0 0 11 17" xmlns="http://www.w3.org/2000/svg">
            <path d="M9.99666 9.34159L2.68691 16.6511C2.22192 17.1163 1.46803 17.1163 1.00326 16.6511C0.538463 16.1863 0.538463 15.4324 1.00326 14.9677L7.47126 8.49988L1.00345 2.03231C0.538651 1.56732 0.538651 0.813539 1.00345 0.34874C1.46825 -0.116247 2.22211 -0.116247 2.6871 0.34874L9.99685 7.65836C10.2292 7.89087 10.3453 8.19528 10.3453 8.49984C10.3453 8.80455 10.229 9.10919 9.99666 9.34159Z"/>
        </symbol>

        <symbol id="arrow_big_grey" width="182" height="455" viewBox="0 0 182 455" fill="none" xmlns="http://www.w3.org/2000/svg">
            <path d="M245 439L32 226L242 16" stroke="#F2F2F2" stroke-width="45"/>
        </symbol>

        <symbol id="arrow_big_yellow" width="257" height="721" viewBox="0 0 257 721" fill="none" xmlns="http://www.w3.org/2000/svg">
            <path d="M363 720L1 357.95L357.901 1" stroke="#F9B233"/>
        </symbol>

        <symbol id="icon_facebook" width="9" height="17" viewBox="0 0 9 17" xmlns="http://www.w3.org/2000/svg">
            <path d="M0.480492 9.0542H2.34397V16.7258C2.34397 16.8773 2.4667 17 2.61816 17H5.77775C5.92921 17 6.05194 16.8773 6.05194 16.7258V9.09034H8.19416C8.33345 9.09034 8.45064 8.98582 8.46654 8.84746L8.7919 6.02315C8.80084 5.94545 8.77622 5.86763 8.72423 5.80934C8.67219 5.75099 8.59772 5.71759 8.51957 5.71759H6.05205V3.94718C6.05205 3.41349 6.33941 3.14286 6.90622 3.14286C6.987 3.14286 8.51957 3.14286 8.51957 3.14286C8.67104 3.14286 8.79377 3.02008 8.79377 2.86867V0.276223C8.79377 0.124758 8.67104 0.00202903 8.51957 0.00202903H6.29614C6.28045 0.00126129 6.24563 0 6.1943 0C5.80851 0 4.46754 0.0757322 3.40828 1.05022C2.23462 2.1301 2.39776 3.42309 2.43675 3.64727V5.71754H0.480492C0.329028 5.71754 0.206299 5.84027 0.206299 5.99173V8.77995C0.206299 8.93142 0.329028 9.0542 0.480492 9.0542Z"/>
        </symbol>

        <symbol id="icon_vk" width="20" height="12" viewBox="0 0 20 12" xmlns="http://www.w3.org/2000/svg">
            <path d="M17.7331 5.0652C18.0175 4.69754 18.2433 4.40254 18.41 4.17997C19.6109 2.58331 20.1315 1.56336 19.9719 1.11868L19.9093 1.01453C19.8678 0.951979 19.7599 0.894534 19.5865 0.842537C19.4129 0.790577 19.1908 0.782274 18.9202 0.816576L15.9213 0.837728C15.8518 0.830815 15.7824 0.83243 15.7129 0.842537C15.6435 0.853094 15.5985 0.863689 15.5775 0.873795C15.5566 0.88439 15.5393 0.892881 15.5255 0.899794L15.484 0.931052C15.4492 0.951753 15.4111 0.988309 15.3695 1.04053C15.3278 1.09272 15.2929 1.1532 15.2653 1.22286C14.939 2.06278 14.5677 2.84386 14.1511 3.56585C13.8942 3.99629 13.6581 4.3697 13.4431 4.68514C13.2279 5.0013 13.0474 5.23378 12.9016 5.38275C12.7559 5.53197 12.6238 5.65197 12.5059 5.74192C12.3878 5.8325 12.2976 5.87044 12.2353 5.85666C12.1727 5.84287 12.1137 5.82908 12.0583 5.8148C11.961 5.75251 11.8828 5.66764 11.824 5.55981C11.7649 5.45248 11.7251 5.317 11.7042 5.15376C11.6835 4.99074 11.6711 4.85004 11.6678 4.73184C11.6642 4.61391 11.666 4.44744 11.6731 4.23197C11.68 4.01673 11.6835 3.87122 11.6835 3.79465C11.6835 3.53114 11.6888 3.24466 11.6992 2.93565C11.7095 2.62686 11.7183 2.38198 11.7251 2.20145C11.732 2.02119 11.7355 1.83011 11.7355 1.62869C11.7355 1.42773 11.7233 1.26952 11.6988 1.15482C11.6745 1.04053 11.6379 0.929474 11.5897 0.821648C11.5409 0.714272 11.4698 0.630791 11.376 0.571956C11.2823 0.512858 11.1661 0.466196 11.0273 0.431218C10.6591 0.347737 10.1905 0.303141 9.62146 0.295815C8.33017 0.282478 7.50059 0.365696 7.1327 0.545958C6.98693 0.622526 6.85494 0.726445 6.73701 0.858429C6.61194 1.01134 6.59469 1.09478 6.68505 1.10812C7.10167 1.17067 7.39648 1.32013 7.57005 1.55603L7.63261 1.68088C7.68111 1.77146 7.72965 1.93106 7.77838 2.16005C7.82692 2.38908 7.85818 2.64245 7.87219 2.92021C7.90691 3.42695 7.90691 3.86063 7.87219 4.22186C7.83748 4.58306 7.8046 4.86405 7.77335 5.06501C7.74205 5.26643 7.69516 5.42945 7.63283 5.55429C7.57028 5.67959 7.52869 5.75593 7.50776 5.78373C7.48684 5.81131 7.46959 5.82878 7.4558 5.83573C7.36545 5.87022 7.27186 5.88769 7.17463 5.88769C7.07736 5.88769 6.95939 5.83892 6.82053 5.74165C6.68163 5.64487 6.53748 5.51105 6.38847 5.34089C6.23902 5.171 6.07093 4.93303 5.8833 4.62743C5.6959 4.32233 5.50137 3.96109 5.30018 3.5447L5.1337 3.24256C5.02956 3.04851 4.88721 2.76546 4.70672 2.39411C4.52623 2.02277 4.36641 1.66363 4.22777 1.31622C4.17213 1.17068 4.08888 1.05962 3.97786 0.98305L3.9259 0.951791C3.89118 0.924177 3.83554 0.894534 3.7592 0.863464C3.68263 0.832205 3.60309 0.809663 3.51961 0.795649L0.66642 0.816351C0.374875 0.816351 0.177143 0.882587 0.0729989 1.01453L0.0313711 1.07686C0.0103318 1.1118 0 1.16744 0 1.24356C0 1.32013 0.0209266 1.41372 0.0625544 1.52455C0.47917 2.50359 0.932154 3.44769 1.42143 4.35682C1.91097 5.26643 2.33611 5.99897 2.69709 6.55426C3.05806 7.11 3.42595 7.63376 3.80098 8.12672C4.176 8.61968 4.42408 8.93535 4.54547 9.07402C4.66686 9.21314 4.76228 9.31732 4.83175 9.38649L5.09204 9.63663C5.25851 9.80314 5.50339 10.0027 5.82623 10.2354C6.14904 10.4681 6.50637 10.6971 6.89886 10.9224C7.29091 11.1482 7.74754 11.3319 8.26807 11.4745C8.78864 11.617 9.29539 11.6743 9.78835 11.6462H10.9859C11.2289 11.6255 11.4128 11.5494 11.5377 11.4172L11.5793 11.3652C11.6069 11.3238 11.6331 11.2595 11.6574 11.1728C11.6816 11.0861 11.6941 10.9904 11.6941 10.8865C11.6869 10.5881 11.7097 10.3186 11.7616 10.0795C11.8136 9.83989 11.8727 9.65962 11.9387 9.53778C12.0047 9.41658 12.0792 9.31405 12.1626 9.23057C12.2459 9.14709 12.3047 9.0972 12.3397 9.07973C12.3744 9.06271 12.4023 9.05054 12.423 9.04317C12.5894 8.98772 12.7855 9.04156 13.0113 9.20457C13.2369 9.36808 13.4487 9.56901 13.6466 9.80859C13.8443 10.0482 14.0821 10.317 14.3599 10.6156C14.6374 10.9141 14.8804 11.1362 15.0887 11.2819L15.297 11.4073C15.4359 11.4903 15.6162 11.5666 15.8385 11.6363C16.0606 11.7055 16.2552 11.723 16.4216 11.6883L19.0874 11.6464C19.3511 11.6464 19.556 11.6032 19.7018 11.5163C19.8475 11.43 19.9343 11.3339 19.9621 11.23C19.9897 11.1259 19.9915 11.0084 19.9674 10.8761C19.943 10.7444 19.9187 10.6524 19.8945 10.6005C19.8702 10.5485 19.8476 10.5048 19.8267 10.4703C19.4795 9.8456 18.8166 9.0783 17.8378 8.16895L17.8168 8.14825L17.8065 8.13769L17.7962 8.12755H17.7857C17.3413 7.70402 17.0603 7.41935 16.9423 7.27335C16.7271 6.99608 16.6784 6.71487 16.7966 6.43024C16.8793 6.2144 17.1916 5.75961 17.7331 5.0652Z"/>
        </symbol>

        <symbol id="icon_instagram" width="16" height="16" viewBox="0 0 16 16" xmlns="http://www.w3.org/2000/svg">
            <path d="M2.05366 0H13.9463C15.0758 0 15.9998 0.836183 15.9998 2.05349V13.9465C15.9998 15.1638 15.0758 16 13.9463 16H2.05366C0.923908 16 0 15.1638 0 13.9465V2.05349C0 0.836183 0.923908 0 2.05366 0ZM11.6553 1.77767C11.2591 1.77767 10.9353 2.10163 10.9353 2.49803V4.22215C10.9353 4.61839 11.2591 4.94251 11.6553 4.94251H13.4637C13.8599 4.94251 14.1841 4.61839 14.1841 4.22215V2.49803C14.1841 2.10163 13.8599 1.77767 13.4637 1.77767H11.6553ZM14.1916 6.76634H12.7834C12.9166 7.20136 12.9888 7.66216 12.9888 8.1389C12.9888 10.8002 10.7618 12.9575 8.0152 12.9575C5.26877 12.9575 3.04213 10.8002 3.04213 8.1389C3.04213 7.66183 3.11408 7.20119 3.24748 6.76634H1.778V13.525C1.778 13.8747 2.06417 14.1611 2.41409 14.1611H13.5559C13.9058 14.1611 14.1919 13.8749 14.1919 13.525V6.76634H14.1916ZM8.01503 4.85167C6.24049 4.85167 4.80173 6.24558 4.80173 7.96526C4.80173 9.68493 6.24049 11.0788 8.01503 11.0788C9.78974 11.0788 11.2287 9.68493 11.2287 7.96526C11.2287 6.24558 9.78991 4.85167 8.01503 4.85167Z"/>
        </symbol>

        <symbol id="icon_logout" viewBox="0 0 512.016 512" xmlns="http://www.w3.org/2000/svg">
            <path d="m496 240.007812h-202.667969c-8.832031 0-16-7.167968-16-16 0-8.832031 7.167969-16 16-16h202.667969c8.832031 0 16 7.167969 16 16 0 8.832032-7.167969 16-16 16zm0 0"/><path d="m416 320.007812c-4.097656 0-8.191406-1.558593-11.308594-4.691406-6.25-6.253906-6.25-16.386718 0-22.636718l68.695313-68.691407-68.695313-68.695312c-6.25-6.25-6.25-16.382813 0-22.632813 6.253906-6.253906 16.386719-6.253906 22.636719 0l80 80c6.25 6.25 6.25 16.382813 0 22.632813l-80 80c-3.136719 3.15625-7.230469 4.714843-11.328125 4.714843zm0 0"/><path d="m170.667969 512.007812c-4.566407 0-8.898438-.640624-13.226563-1.984374l-128.386718-42.773438c-17.46875-6.101562-29.054688-22.378906-29.054688-40.574219v-384c0-23.53125 19.136719-42.6679685 42.667969-42.6679685 4.5625 0 8.894531.6406255 13.226562 1.9843755l128.382813 42.773437c17.472656 6.101563 29.054687 22.378906 29.054687 40.574219v384c0 23.53125-19.132812 42.667968-42.664062 42.667968zm-128-480c-5.867188 0-10.667969 4.800782-10.667969 10.667969v384c0 4.542969 3.050781 8.765625 7.402344 10.28125l127.785156 42.582031c.917969.296876 2.113281.46875 3.480469.46875 5.867187 0 10.664062-4.800781 10.664062-10.667968v-384c0-4.542969-3.050781-8.765625-7.402343-10.28125l-127.785157-42.582032c-.917969-.296874-2.113281-.46875-3.476562-.46875zm0 0"/><path d="m325.332031 170.675781c-8.832031 0-16-7.167969-16-16v-96c0-14.699219-11.964843-26.667969-26.664062-26.667969h-240c-8.832031 0-16-7.167968-16-16 0-8.832031 7.167969-15.9999995 16-15.9999995h240c32.363281 0 58.664062 26.3046875 58.664062 58.6679685v96c0 8.832031-7.167969 16-16 16zm0 0"/><path d="m282.667969 448.007812h-85.335938c-8.832031 0-16-7.167968-16-16 0-8.832031 7.167969-16 16-16h85.335938c14.699219 0 26.664062-11.96875 26.664062-26.667968v-96c0-8.832032 7.167969-16 16-16s16 7.167968 16 16v96c0 32.363281-26.300781 58.667968-58.664062 58.667968zm0 0"/>
        </symbol>

        <symbol id="icon_user" viewBox="-42 0 512 512.001" xmlns="http://www.w3.org/2000/svg">
            <path d="m210.351562 246.632812c33.882813 0 63.21875-12.152343 87.195313-36.128906 23.96875-23.972656 36.125-53.304687 36.125-87.191406 0-33.875-12.152344-63.210938-36.128906-87.191406-23.976563-23.96875-53.3125-36.121094-87.191407-36.121094-33.886718 0-63.21875 12.152344-87.191406 36.125s-36.128906 53.308594-36.128906 87.1875c0 33.886719 12.15625 63.222656 36.128906 87.195312 23.980469 23.96875 53.316406 36.125 87.191406 36.125zm-65.972656-189.292968c18.394532-18.394532 39.972656-27.335938 65.972656-27.335938 25.996094 0 47.578126 8.941406 65.976563 27.335938 18.394531 18.398437 27.339844 39.980468 27.339844 65.972656 0 26-8.945313 47.578125-27.339844 65.976562-18.398437 18.398438-39.980469 27.339844-65.976563 27.339844-25.992187 0-47.570312-8.945312-65.972656-27.339844-18.398437-18.394531-27.34375-39.976562-27.34375-65.976562 0-25.992188 8.945313-47.574219 27.34375-65.972656zm0 0"/><path d="m426.128906 393.703125c-.691406-9.976563-2.089844-20.859375-4.148437-32.351563-2.078125-11.578124-4.753907-22.523437-7.957031-32.527343-3.3125-10.339844-7.808594-20.550781-13.375-30.335938-5.769532-10.15625-12.550782-19-20.160157-26.277343-7.957031-7.613282-17.699219-13.734376-28.964843-18.199219-11.226563-4.441407-23.667969-6.691407-36.976563-6.691407-5.226563 0-10.28125 2.144532-20.042969 8.5-6.007812 3.917969-13.035156 8.449219-20.878906 13.460938-6.707031 4.273438-15.792969 8.277344-27.015625 11.902344-10.949219 3.542968-22.066406 5.339844-33.042969 5.339844-10.96875 0-22.085937-1.796876-33.042968-5.339844-11.210938-3.621094-20.300782-7.625-26.996094-11.898438-7.769532-4.964844-14.800782-9.496094-20.898438-13.46875-9.753906-6.355468-14.808594-8.5-20.035156-8.5-13.3125 0-25.75 2.253906-36.972656 6.699219-11.257813 4.457031-21.003906 10.578125-28.96875 18.199219-7.609375 7.28125-14.390625 16.121094-20.15625 26.273437-5.558594 9.785157-10.058594 19.992188-13.371094 30.339844-3.199219 10.003906-5.875 20.945313-7.953125 32.523437-2.0625 11.476563-3.457031 22.363282-4.148437 32.363282-.679688 9.777344-1.023438 19.953125-1.023438 30.234375 0 26.726562 8.496094 48.363281 25.25 64.320312 16.546875 15.746094 38.4375 23.730469 65.066406 23.730469h246.53125c26.621094 0 48.511719-7.984375 65.0625-23.730469 16.757813-15.945312 25.253906-37.589843 25.253906-64.324219-.003906-10.316406-.351562-20.492187-1.035156-30.242187zm-44.90625 72.828125c-10.933594 10.40625-25.449218 15.464844-44.378906 15.464844h-246.527344c-18.933594 0-33.449218-5.058594-44.378906-15.460938-10.722656-10.207031-15.933594-24.140625-15.933594-42.585937 0-9.59375.316406-19.066407.949219-28.160157.617187-8.921874 1.878906-18.722656 3.75-29.136718 1.847656-10.285156 4.199219-19.9375 6.996094-28.675782 2.683593-8.378906 6.34375-16.675781 10.882812-24.667968 4.332031-7.617188 9.316407-14.152344 14.816407-19.417969 5.144531-4.925781 11.628906-8.957031 19.269531-11.980469 7.066406-2.796875 15.007812-4.328125 23.628906-4.558594 1.050781.558594 2.921875 1.625 5.953125 3.601563 6.167969 4.019531 13.277344 8.605469 21.136719 13.625 8.859375 5.648437 20.273437 10.75 33.910156 15.152344 13.941406 4.507812 28.160156 6.796875 42.273437 6.796875 14.113282 0 28.335938-2.289063 42.269532-6.792969 13.648437-4.410156 25.058594-9.507813 33.929687-15.164063 8.042969-5.140624 14.953125-9.59375 21.121094-13.617187 3.03125-1.972656 4.902344-3.042969 5.953125-3.601563 8.625.230469 16.566406 1.761719 23.636719 4.558594 7.636719 3.023438 14.121093 7.058594 19.265625 11.980469 5.5 5.261719 10.484375 11.796875 14.816406 19.421875 4.542969 7.988281 8.207031 16.289062 10.886719 24.660156 2.800781 8.75 5.15625 18.398438 7 28.675782 1.867187 10.433593 3.132812 20.238281 3.75 29.144531v.007812c.636719 9.058594.957031 18.527344.960937 28.148438-.003906 18.449219-5.214844 32.378906-15.9375 42.582031zm0 0"/>
        </symbol>

        <symbol id="icon_window_max" enable-background="new 0 0 24 24" viewBox="0 0 24 24"  xmlns="http://www.w3.org/2000/svg">
            <g>
                <path d="m15 9.75c-.192 0-.384-.073-.53-.22-.293-.293-.293-.768 0-1.061l8.25-8.25c.293-.293.768-.293 1.061 0s.293.768 0 1.061l-8.25 8.25c-.147.147-.339.22-.531.22z"/></g><g><path d="m20.25 10h-5.5c-.414 0-.75-.336-.75-.75v-5.5c0-.414.336-.75.75-.75s.75.336.75.75v4.75h4.75c.414 0 .75.336.75.75s-.336.75-.75.75z"/></g><g><path d="m17.25 24h-14.5c-1.517 0-2.75-1.233-2.75-2.75v-11.5c0-.981.529-1.89 1.38-2.373.361-.205.818-.077 1.022.283.205.36.078.818-.282 1.022-.388.22-.62.62-.62 1.068v11.5c0 .689.561 1.25 1.25 1.25h14.5c.689 0 1.25-.561 1.25-1.25v-2c0-.414.336-.75.75-.75s.75.336.75.75v2c0 1.517-1.233 2.75-2.75 2.75z"/></g><g><path d="m1.75 12h-1c-.414 0-.75-.336-.75-.75s.336-.75.75-.75h1c.414 0 .75.336.75.75s-.336.75-.75.75z"/></g><g><path d="m21.25 17h-14.5c-1.517 0-2.75-1.233-2.75-2.75v-11.5c0-1.517 1.233-2.75 2.75-2.75h11.5c.414 0 .75.336.75.75s-.336.75-.75.75h-11.5c-.689 0-1.25.561-1.25 1.25v11.5c0 .689.561 1.25 1.25 1.25h14.5c.689 0 1.25-.561 1.25-1.25v-8.5c0-.414.336-.75.75-.75s.75.336.75.75v8.5c0 1.517-1.233 2.75-2.75 2.75z"/></g><g>
                <path d="m11.25 5h-6.5c-.414 0-.75-.336-.75-.75s.336-.75.75-.75h6.5c.414 0 .75.336.75.75s-.336.75-.75.75z"/>
            </g>
        </symbol>

        <symbol id="icon_calendar" xmlns="http://www.w3.org/2000/svg" viewBox="0 0 512 512" style="enable-background:new 0 0 512 512;" xml:space="preserve"><g><g><g><circle cx="386" cy="210" r="20"/><path d="M432,40h-26V20c0-11.046-8.954-20-20-20c-11.046,0-20,8.954-20,20v20h-91V20c0-11.046-8.954-20-20-20 c-11.046,0-20,8.954-20,20v20h-90V20c0-11.046-8.954-20-20-20s-20,8.954-20,20v20H80C35.888,40,0,75.888,0,120v312 c0,44.112,35.888,80,80,80h153c11.046,0,20-8.954,20-20c0-11.046-8.954-20-20-20H80c-22.056,0-40-17.944-40-40V120 c0-22.056,17.944-40,40-40h25v20c0,11.046,8.954,20,20,20s20-8.954,20-20V80h90v20c0,11.046,8.954,20,20,20s20-8.954,20-20V80h91 v20c0,11.046,8.954,20,20,20c11.046,0,20-8.954,20-20V80h26c22.056,0,40,17.944,40,40v114c0,11.046,8.954,20,20,20 c11.046,0,20-8.954,20-20V120C512,75.888,476.112,40,432,40z"/><path d="M391,270c-66.72,0-121,54.28-121,121s54.28,121,121,121s121-54.28,121-121S457.72,270,391,270z M391,472 c-44.663,0-81-36.336-81-81s36.337-81,81-81c44.663,0,81,36.336,81,81S435.663,472,391,472z"/>
            <path d="M420,371h-9v-21c0-11.046-8.954-20-20-20c-11.046,0-20,8.954-20,20v41c0,11.046,8.954,20,20,20h29 c11.046,0,20-8.954,20-20C440,379.954,431.046,371,420,371z"/>
                    <circle cx="299" cy="210" r="20"/><circle cx="212" cy="297" r="20"/><circle cx="125" cy="210" r="20"/><circle cx="125" cy="297" r="20"/><circle cx="125" cy="384" r="20"/><circle cx="212" cy="384" r="20"/><circle cx="212" cy="210" r="20"/>
                </g></g></g>
        </symbol>

        <symbol id="icon_add" xmlns="http://www.w3.org/2000/svg" viewBox="0 0 477.867 477.867" style="enable-background:new 0 0 477.867 477.867;" xml:space="preserve">
            <g><g><path d="M392.533,0h-307.2C38.228,0.056,0.056,38.228,0,85.333v307.2c0.056,47.105,38.228,85.277,85.333,85.333h307.2 c47.105-0.056,85.277-38.228,85.333-85.333v-307.2C477.81,38.228,439.638,0.056,392.533,0z M443.733,392.533 c0,28.277-22.923,51.2-51.2,51.2h-307.2c-28.277,0-51.2-22.923-51.2-51.2v-307.2c0-28.277,22.923-51.2,51.2-51.2h307.2 c28.277,0,51.2,22.923,51.2,51.2V392.533z"/></g></g><g><g><path d="M324.267,221.867H256V153.6c0-9.426-7.641-17.067-17.067-17.067s-17.067,7.641-17.067,17.067v68.267H153.6 c-9.426,0-17.067,7.641-17.067,17.067S144.174,256,153.6,256h68.267v68.267c0,9.426,7.641,17.067,17.067,17.067 S256,333.692,256,324.267V256h68.267c9.426,0,17.067-7.641,17.067-17.067S333.692,221.867,324.267,221.867z"/></g></g>
        </symbol>

        <symbol id="icon_add_pencil" enable-background="new 0 0 24 24" viewBox="0 0 24 24" xmlns="http://www.w3.org/2000/svg">
            <path d="m17.5 24c-3.584 0-6.5-2.916-6.5-6.5s2.916-6.5 6.5-6.5 6.5 2.916 6.5 6.5-2.916 6.5-6.5 6.5zm0-11.5c-2.757 0-5 2.243-5 5s2.243 5 5 5 5-2.243 5-5-2.243-5-5-5z"/><path d="m17.5 21c-.414 0-.75-.336-.75-.75v-5.5c0-.414.336-.75.75-.75s.75.336.75.75v5.5c0 .414-.336.75-.75.75z"/><path d="m20.25 18.25h-5.5c-.414 0-.75-.336-.75-.75s.336-.75.75-.75h5.5c.414 0 .75.336.75.75s-.336.75-.75.75z"/><path d="m19.871 9.011c-.192 0-.384-.073-.53-.22l-4.135-4.134c-.293-.293-.293-.768 0-1.061s.768-.293 1.061 0l4.135 4.134c.293.293.293.768 0 1.061-.147.147-.339.22-.531.22z"/><path d="m.75 24c-.195 0-.387-.076-.53-.22-.206-.206-.274-.513-.175-.786l2.38-6.56c.038-.104.097-.197.175-.274l15.08-15.07c1.392-1.404 3.836-1.406 5.233.002.7.701 1.087 1.628 1.087 2.608 0 .999-.389 1.931-1.094 2.625l-3.135 3.135c-.293.293-.768.293-1.061 0s-.293-.768 0-1.061l3.14-3.14c.421-.414.65-.967.65-1.56 0-.58-.231-1.13-.65-1.55-.833-.84-2.279-.838-3.107-.002l-14.965 14.956-1.776 4.896 4.896-1.776 1.502-1.503c.293-.293.768-.293 1.061 0s.293.768 0 1.061l-1.621 1.619c-.078.078-.171.138-.274.175l-6.56 2.38c-.084.03-.17.045-.256.045z"/><path d="m7.308 21.62c-.192 0-.384-.073-.53-.22l-4.178-4.177c-.293-.293-.293-.768 0-1.061s.768-.293 1.061 0l4.178 4.178c.293.293.293.768 0 1.061-.147.146-.339.219-.531.219z"/>
        </symbol>

        <symbol id="icon_add_double" xmlns="http://www.w3.org/2000/svg" viewBox="0 0 512 512" enable-background="new 0 0 512 512" xml:space="preserve">
            <g>
                <g>
                    <g>
                        <path d="M464,64h-48V48c0-26.51-21.49-48-48-48H48C21.49,0,0,21.49,0,48v320c0,26.51,21.49,48,48,48h16v48
                            c0,26.51,21.49,48,48,48h352c26.51,0,48-21.49,48-48V112C512,85.49,490.51,64,464,64z M64,112v272H48c-8.837,0-16-7.163-16-16V48
                            c0-8.837,7.163-16,16-16h320c8.837,0,16,7.163,16,16v16H112C85.49,64,64,85.49,64,112z M480,464c0,8.837-7.163,16-16,16H112
                            c-8.837,0-16-7.163-16-16V112c0-8.837,7.163-16,16-16h352c8.837,0,16,7.163,16,16V464z"/>
                        <polygon points="304,176 272,176 272,272 176,272 176,304 272,304 272,400 304,400 304,304 400,304 400,272 304,272 			"/>
                    </g>
                </g>
            </g>
        </symbol>


        <symbol id="icon_pencil" xmlns="http://www.w3.org/2000/svg" viewBox="0 0 469.336 469.336" style="enable-background:new 0 0 469.336 469.336;" xml:space="preserve">
            <g>
                <g>
                    <path d="M456.836,76.168l-64-64.054c-16.125-16.139-44.177-16.17-60.365,0.031L45.763,301.682
                        c-1.271,1.282-2.188,2.857-2.688,4.587L0.409,455.73c-1.063,3.722-0.021,7.736,2.719,10.478c2.031,2.033,4.75,3.128,7.542,3.128
                        c0.979,0,1.969-0.136,2.927-0.407l149.333-42.703c1.729-0.5,3.302-1.418,4.583-2.69l289.323-286.983
                        c8.063-8.069,12.5-18.787,12.5-30.192S464.899,84.237,456.836,76.168z M285.989,89.737l39.264,39.264L120.257,333.998
                        l-14.712-29.434c-1.813-3.615-5.5-5.896-9.542-5.896H78.921L285.989,89.737z M26.201,443.137L40.095,394.5l34.742,34.742
                        L26.201,443.137z M149.336,407.96l-51.035,14.579l-51.503-51.503l14.579-51.035h28.031l18.385,36.771
                        c1.031,2.063,2.708,3.74,4.771,4.771l36.771,18.385V407.96z M170.67,390.417v-17.082c0-4.042-2.281-7.729-5.896-9.542
                        l-29.434-14.712l204.996-204.996l39.264,39.264L170.67,390.417z M441.784,121.72l-47.033,46.613l-93.747-93.747l46.582-47.001
                        c8.063-8.063,22.104-8.063,30.167,0l64,64c4.031,4.031,6.25,9.385,6.25,15.083S445.784,117.72,441.784,121.72z"/>
                </g>
            </g>
        </symbol>

        <symbol id="icon_close_outline" xmlns="http://www.w3.org/2000/svg" viewBox="0 0 512 512" style="enable-background:new 0 0 512 512;" xml:space="preserve">
            <g>
                <g>
                    <path d="M498.344,407.68L348.16,255.787l151.893-151.893C508.587,95.36,512,85.12,512,74.88c0-10.24-3.413-20.48-11.947-27.307
                        l-35.84-35.84c-15.36-15.36-40.96-15.36-56.32,0L256,163.627L104.106,11.733c-15.36-15.36-40.96-15.36-56.32,0l-35.84,35.84
                        C5.12,54.4,0,64.64,0,74.88s5.12,20.48,11.947,29.013L163.84,255.787L11.946,407.68c-15.36,15.36-15.36,40.96,0,56.32l35.84,35.84
                        c15.36,15.36,40.96,15.36,56.32,0l151.893-151.893L407.891,499.84c6.827,6.827,17.067,11.947,27.307,11.947
                        c10.24,0,20.48-3.413,27.307-11.947l35.84-35.84c6.827-6.827,11.947-17.067,11.947-29.014
                        C510.291,424.746,506.878,414.506,498.344,407.68z M476.16,440.107l-35.84,35.84c-3.413,3.413-5.12,3.413-8.534,0l-163.84-163.84
                        c-1.706-3.413-6.827-5.12-11.946-5.12s-8.534,1.707-11.946,5.12l-163.84,163.84c-3.413,3.413-5.12,3.413-8.534,0l-35.84-35.84
                        c-1.706-1.707-1.706-5.12,0-8.534l163.84-163.84c3.413-3.413,5.12-6.827,5.12-11.946c0-5.12-1.707-8.534-5.12-11.947L35.84,80
                        c-1.706-1.706-1.706-3.413-1.706-5.12s0-3.413,1.706-3.413l35.84-35.84c3.413-3.413,5.12-3.413,8.534,0l163.84,163.84
                        c6.827,6.827,17.067,6.827,23.893,0l163.84-163.84c3.413-3.413,5.12-3.413,8.534,0l35.84,35.84
                        c1.706,1.706,1.706,3.413,1.706,3.413c0,1.706,0,3.413-1.707,3.413l-163.84,163.84c-6.827,6.827-6.827,17.067,0,23.893
                        l163.84,163.84c1.707,1.707,1.707,3.413,1.707,3.413C477.867,436.693,477.867,438.4,476.16,440.107z"/>
                </g>
            </g>
        </symbol>

    </defs>
</svg>