<svg>
    <defs>

        <symbol id="icon-arrow-down" xmlns="http://www.w3.org/2000/svg" viewBox="0 0 451.8 451.8">
            <path d="M226 354.7c-8.2 0-16.3-3-22.4-9.3L9.3 151.2A31.6 31.6 0 1154 106.4l172 172 171.8-172a31.6 31.6 0 0144.8 44.8L248.3 345.4a31.5 31.5 0 01-22.4 9.3z"/>
        </symbol>
        
        <symbol id="icon-close-modal" viewBox="0 0 24 24" xmlns="http://www.w3.org/2000/svg" fill="none" stroke="currentColor" stroke-width="2" stroke-linecap="round" stroke-linejoin="round">
            <path d="M18 6 6 18M6 6l12 12"/>
        </symbol>

        <symbol id="icon-search-loupe" xmlns="http://www.w3.org/2000/svg" viewBox="0 0 57 57" xml:space="preserve">
            <path d="M55.1 51.9 41.6 37.8A23 23 0 0 0 24 0a23 23 0 1 0 13.2 41.8L50.8 56a3 3 0 0 0 4.3.1 3 3 0 0 0 0-4.2zM24 6a17 17 0 1 1 0 34 17 17 0 0 1 0-34z"/>
        </symbol>

        <symbol id="icon-arrow-left" xmlns="http://www.w3.org/2000/svg" viewBox="0 0 512 512" xml:space="preserve">
            <path d="M492 236H68.4l70.2-69.8a20 20 0 1 0-28.2-28.4L5.9 241.8a20 20 0 0 0 0 28.4l104.5 104a20 20 0 0 0 28.2-28.4L68.4 276H492a20 20 0 1 0 0-40z"/>
        </symbol>

        <symbol id="icon-eye-close" xmlns="http://www.w3.org/2000/svg" viewBox="0 0 512 512" xml:space="preserve">
            <path d="M316.3 195.7a10.7 10.7 0 0 0-15 15 64 64 0 0 1-90.5 90.5 10.7 10.7 0 0 0-15.1 15.1 85.4 85.4 0 0 0 120.7-120.7zM270.9 172.1a85.4 85.4 0 0 0-98.7 98.7 10.7 10.7 0 0 0 21-3.7 64 64 0 0 1 74-74 10.6 10.6 0 1 0 3.7-21z"/>
            <path d="M509.5 249.1c-2.4-2.9-60.2-70.2-139.8-111.4a10.7 10.7 0 0 0-9.7 19c61.3 31.7 110.3 81.2 127 99.3-25.4 27.5-125.5 128-231 128a246 246 0 0 1-107.3-25.7 10.6 10.6 0 1 0-9.2 19.2A266.7 266.7 0 0 0 256 405.3c131.4 0 248.6-136.6 253.5-142.4 3.4-4 3.3-9.8 0-13.8zM326 119a220.3 220.3 0 0 0-70-12.3C124.6 106.7 7.4 243.3 2.5 249c-3.1 3.7-3.4 9-.6 13a396 396 0 0 0 97.9 92.8 10.6 10.6 0 0 0 14.8-3c3.2-5 1.9-11.6-3-14.8a390.1 390.1 0 0 1-87.2-80.5C49 229.9 149.7 128 256 128c19.9 0 41.1 3.7 63.2 11.2 5.6 2 11.6-1.1 13.5-6.7a10.6 10.6 0 0 0-6.7-13.6z"/>
            <path d="M444.9 67.1c-4.2-4.1-11-4.1-15.1 0L67 429.8a10.7 10.7 0 0 0 15.1 15L444.9 82.3c4.1-4.1 4.1-11 0-15z"/>
        </symbol>

        <symbol id="icon-eye-open" xmlns="http://www.w3.org/2000/svg" viewBox="0 0 512 512" xml:space="preserve">
            <path d="M510.1 250c-4-6-101-143.3-254.1-143.3C124.6 106.7 7.4 243.3 2.5 249c-3.3 4-3.3 9.8 0 13.8 5 5.8 122 142.4 253.5 142.4S504.5 268.7 509.5 263c3-3.7 3.3-9 .6-13zM256 384C150.6 384 50.4 283.5 25 256c25.4-27.5 125.5-128 231-128 123.3 0 210.3 100.3 231.5 127.4C463 282.1 362.3 384 256 384z"/>
            <path d="M256 170.7a85.4 85.4 0 1 0 .2 170.8 85.4 85.4 0 0 0-.2-170.8zm0 149.3a64 64 0 1 1 .2-128.2A64 64 0 0 1 256 320z"/>
        </symbol>

        <symbol id="icon-check" xmlns="http://www.w3.org/2000/svg" viewBox="0 0 512 512" xml:space="preserve">
            <path d="M504.5 75.5c-10-10-26.2-10-36.2 0L161.6 382.2 43.7 264.3a25.6 25.6 0 0 0-36.2 36.2l136 136c10 10 26.2 10 36.2 0l324.8-324.8c10-10 10-26.2 0-36.2z"/>
        </symbol>

        <symbol id="icon-check-bold" viewBox="0 -46 417.8 417" xmlns="http://www.w3.org/2000/svg">
            <path d="M160 318.6a21.3 21.3 0 0 1-30.2 0L9.4 198a32 32 0 0 1 0-45.2l15-15.1a32 32 0 0 1 45.3 0L145 213 348.1 9.8a32 32 0 0 1 45.3 0l15 15a32 32 0 0 1 0 45.3zm0 0"/>
        </symbol>

        <symbol id="icon-window" viewBox="0 0 128 128" xmlns="http://www.w3.org/2000/svg">
            <path d="M111.5 14.6h-95a1.8 1.8 0 0 0-1.7 1.8v95.2a1.8 1.8 0 0 0 1.7 1.8h95a1.8 1.8 0 0 0 1.7-1.8V16.4a1.8 1.8 0 0 0-1.7-1.8zm-1.8 95.3H18.3V18h91.4z"/>
            <path d="M23.5 106.4h81a1.8 1.8 0 0 0 1.7-1.8v-81a1.8 1.8 0 0 0-1.7-1.8h-81a1.8 1.8 0 0 0-1.7 1.7v81.1a1.8 1.8 0 0 0 1.7 1.8zm38.8-45.8V25.3h3.5v35.3a1.8 1.8 0 0 0 1.7 1.8h35.2v3.5H67.5a1.8 1.8 0 0 0-1.8 1.7V103h-3.5V67.6a1.8 1.8 0 0 0-1.7-1.7H25.3v-3.5h35.2a1.8 1.8 0 0 0 1.8-1.8zm-37 8.8h33.5v33.5H25.3zm44 33.5V69.4h33.4v33.5zm33.4-44H69.2V25.3h33.5zm-44-33.6v33.6H25.3V25.3z"/>
            <path d="m32.8 37.3 4.7-4.7a1.8 1.8 0 1 0-2.5-2.4l-4.6 4.6a1.7 1.7 0 0 0 2.4 2.5zM33 46.5a1.8 1.8 0 0 0 2.5 0l11.1-11.2a1.7 1.7 0 0 0-2.4-2.5L33 44a1.7 1.7 0 0 0 0 2.5zM81 76.2a1.7 1.7 0 0 0-2.5-2.5L74 78.4a1.8 1.8 0 1 0 2.5 2.4zM87.7 76.4 76.5 87.5A1.8 1.8 0 0 0 79 90l11.2-11.2a1.8 1.8 0 1 0-2.5-2.4z"/>
        </symbol>

    </defs>
</svg>