<svg xmlns="http://www.w3.org/2000/svg" width="17.17" height="17.17" viewBox="0 0 17.17 17.17">
            <defs>
                <clipPath id="clip-path">
                    <path id="close" d="M11.419 8.586l5.312-5.312a1.5 1.5 0 0 0 0-2.124l-.709-.709a1.5 1.5 0 0 0-2.125 0L8.586 5.753 3.274.44a1.5 1.5 0 0 0-2.124 0l-.709.708a1.5 1.5 0 0 0 0 2.125l5.312 5.313L.442 13.9a1.5 1.5 0 0 0 0 2.125l.708.708a1.5 1.5 0 0 0 2.124 0l5.312-5.312L13.9 16.73a1.5 1.5 0 0 0 2.125 0l.708-.708a1.5 1.5 0 0 0 0-2.125zm0 0" class="cls-1" transform="translate(675.639 72.64)"/>
                </clipPath>
            </defs>
            <g id="Группа_масок_1" clip-path="url(#clip-path)" transform="translate(-675.639 -72.639)">
                <path id="close_1_" d="M10.158 8.593l6.686-6.686A1.112 1.112 0 0 0 15.271.334L8.585 7.02 1.9.334A1.112 1.112 0 0 0 .326 1.907l6.686 6.686-6.686 6.686A1.112 1.112 0 1 0 1.9 16.852l6.686-6.686 6.686 6.686a1.112 1.112 0 0 0 1.573-1.573zm0 0" class="cls-1" transform="translate(675.639 72.632)"/>
            </g>
        </svg>