<svg width="32" height="28" viewBox="0 0 32 28" fill="none" xmlns="http://www.w3.org/2000/svg">
<path d="M31.937 4.09348C30.7394 4.61999 29.4708 4.9677 28.172 5.12548C29.5411 4.30378 30.566 3.01383 31.057 1.49448C29.7621 2.24549 28.3527 2.77891 26.885 3.07348C25.8981 2.01894 24.5907 1.31961 23.1657 1.08398C21.7407 0.848357 20.2777 1.08961 19.0039 1.77032C17.73 2.45103 16.7163 3.53313 16.1202 4.84873C15.5241 6.16434 15.3789 7.6399 15.707 9.04648C10.254 8.79148 5.42005 6.17148 2.18705 2.21348C1.59852 3.21437 1.29072 4.35541 1.29605 5.51648C1.29524 6.59585 1.56099 7.65871 2.06969 8.61068C2.57838 9.56265 3.31429 10.3743 4.21205 10.9735C3.17167 10.942 2.15396 10.6619 1.24405 10.1565V10.2355C1.24373 11.7505 1.76726 13.219 2.7259 14.3922C3.68455 15.5653 5.01933 16.371 6.50405 16.6725C5.94164 16.8228 5.36218 16.8997 4.78005 16.9015C4.35905 16.9015 3.95705 16.8605 3.55605 16.7865C3.97858 18.0902 4.79705 19.2298 5.89756 20.0465C6.99806 20.8633 8.32583 21.3167 9.69605 21.3435C7.37446 23.1616 4.50983 24.1479 1.56105 24.1445C1.03875 24.1466 0.516808 24.1172 -0.00195312 24.0565C3.00614 25.9839 6.50441 27.0072 10.077 27.0045C22.144 27.0045 28.738 17.0095 28.738 8.35348C28.738 8.07748 28.738 7.79648 28.717 7.51448C30.0069 6.59003 31.1186 5.43943 31.998 4.11848L31.937 4.09348Z" fill="#1B2D9D"/>
</svg>
