<svg height="150" width="150" viewBox="0 0 128 128" xmlns="http://www.w3.org/2000/svg"><g><path d="m111.48 14.64h-94.96a1.75 1.75 0 0 0 -1.75 1.75v95.22a1.75 1.75 0 0 0 1.75 1.75h94.96a1.75 1.75 0 0 0 1.75-1.75v-95.22a1.75 1.75 0 0 0 -1.75-1.75zm-1.75 95.22h-91.46v-91.72h91.46z"/><path d="m23.52 106.36h80.96a1.75 1.75 0 0 0 1.75-1.75v-81.09a1.75 1.75 0 0 0 -1.75-1.75h-80.96a1.75 1.75 0 0 0 -1.75 1.75v81.09a1.75 1.75 0 0 0 1.75 1.75zm38.73-45.73v-35.36h3.5v35.36a1.75 1.75 0 0 0 1.75 1.75h35.23v3.5h-35.23a1.75 1.75 0 0 0 -1.75 1.75v35.23h-3.5v-35.23a1.75 1.75 0 0 0 -1.75-1.75h-35.23v-3.5h35.23a1.75 1.75 0 0 0 1.75-1.75zm-36.98 8.75h33.48v33.48h-33.48zm43.98 33.48v-33.48h33.48v33.48zm33.48-43.98h-33.48v-33.61h33.48zm-43.98-33.61v33.61h-33.48v-33.61z"/><path d="m32.828 37.283 4.636-4.636a1.75 1.75 0 1 0 -2.474-2.475l-4.636 4.637a1.749 1.749 0 0 0 2.474 2.474z"/><path d="m32.99 46.465a1.75 1.75 0 0 0 2.474 0l11.182-11.182a1.749 1.749 0 0 0 -2.474-2.474l-11.182 11.181a1.749 1.749 0 0 0 0 2.475z"/><path d="m81.01 76.191a1.749 1.749 0 0 0 -2.474-2.474l-4.636 4.636a1.75 1.75 0 1 0 2.474 2.475z"/><path d="m87.717 76.353-11.181 11.182a1.75 1.75 0 0 0 2.474 2.475l11.182-11.182a1.75 1.75 0 1 0 -2.475-2.475z"/></g></svg>